<svg xmlns="http://www.w3.org/2000/svg" viewBox="0 0 128 128"><rect width="128" height="128" rx="12" fill="#3178C6"/><path d="M56.6 83.8v10.2c1.7.9 3.7 1.6 5.9 2 2.2.5 4.5.7 6.9.7 2.3 0 4.5-.2 6.6-.7 2.1-.5 3.9-1.3 5.5-2.4 1.6-1.1 2.8-2.5 3.7-4.3.9-1.7 1.4-3.8 1.4-6.3 0-1.8-.3-3.4-.8-4.8-.6-1.4-1.3-2.6-2.4-3.7-1-1.1-2.2-2-3.6-2.9-1.4-.9-2.9-1.7-4.6-2.5-1.2-.5-2.3-1.1-3.3-1.6-1-.5-1.8-1-2.5-1.6-.7-.5-1.2-1.1-1.6-1.8-.4-.6-.6-1.4-.6-2.2 0-.7.2-1.4.5-2 .4-.6.9-1.1 1.5-1.5.6-.4 1.4-.7 2.3-.9.9-.2 1.8-.3 2.9-.3 .7 0 1.5.1 2.4.2.9.1 1.7.3 2.6.6.9.3 1.7.6 2.5 1 .8.4 1.5.9 2.2 1.5V49.5c-1.5-.6-3.1-1-4.9-1.3-1.8-.3-3.8-.4-6.1-.4-2.3 0-4.5.3-6.5.8-2 .5-3.8 1.3-5.3 2.4-1.5 1.1-2.7 2.4-3.5 4.1-.9 1.7-1.3 3.6-1.3 5.8 0 3.1.9 5.7 2.7 7.9 1.8 2.2 4.4 4.1 7.9 5.6 1.3.5 2.4 1.1 3.5 1.7 1.1.5 2 1.1 2.7 1.7.8.6 1.4 1.2 1.8 1.9.4.7.6 1.5.6 2.4 0 .8-.2 1.5-.5 2.1-.3.6-.8 1.1-1.5 1.5-.6.4-1.4.7-2.4.9-1 .2-2 .3-3.3.3-2.1 0-4.2-.4-6.2-1.2-2-.8-3.9-2-5.5-3.5zM47.5 52.9h11.6v-8.7H27.4v8.7H39v34h8.5v-34z" fill="#fff"/></svg>